<?xml version="1.0" standalone="no"?>
<!DOCTYPE svg PUBLIC "-//W3C//DTD SVG 20010904//EN"
 "http://www.w3.org/TR/2001/REC-SVG-20010904/DTD/svg10.dtd">
<svg version="1.0" xmlns="http://www.w3.org/2000/svg"
 width="512.000000pt" height="512.000000pt" viewBox="0 0 512.000000 512.000000"
 preserveAspectRatio="xMidYMid meet">
<metadata>
Created by potrace 1.14, written by Peter Selinger 2001-2017
</metadata>
<g transform="translate(0.000000,512.000000) scale(0.100000,-0.100000)"
fill="#000000" stroke="none">
<path d="M0 3840 l0 -1280 1148 -3 1147 -2 -1147 -3 -1148 -2 0 -1275 0 -1275
1405 0 c773 0 1405 3 1405 8 0 4 -81 468 -179 1031 l-179 1024 136 155 136
155 139 -7 c76 -4 146 -9 155 -11 88 -16 1028 -23 1442 -10 151 4 353 8 449 7
148 -1 176 -3 192 -18 19 -17 19 12 19 1384 l0 1402 -1275 0 -1275 0 -3 -1147
-2 -1148 -3 1148 -2 1147 -1280 0 -1280 0 0 -1280z m1370 275 l0 -185 175 0
175 0 0 -70 0 -70 -175 0 -175 0 0 -200 0 -200 -85 0 -85 0 0 200 0 200 -175
0 -175 0 0 70 0 70 175 0 175 0 0 185 0 185 85 0 85 0 0 -185z m2810 -275 l0
-70 -340 0 -340 0 0 70 0 70 340 0 340 0 0 -70z m-2648 -2433 l-132 -132 125
-125 125 -125 -55 -55 -55 -55 -125 125 -125 125 -138 -138 c-75 -75 -142
-137 -147 -137 -6 0 -35 25 -65 55 l-55 55 143 143 142 142 -125 125 -125 125
55 55 55 55 125 -125 125 -125 132 133 133 132 60 -60 60 -60 -133 -133z"/>
<path d="M5044 395 l-70 -390 69 -3 c38 -2 71 -1 73 1 2 2 3 179 2 393 l-3
389 -71 -390z"/>
</g>
</svg>
